<?xml version="1.0" standalone="no"?>
<!DOCTYPE svg PUBLIC "-//W3C//DTD SVG 20010904//EN"
 "http://www.w3.org/TR/2001/REC-SVG-20010904/DTD/svg10.dtd">
<svg version="1.0" xmlns="http://www.w3.org/2000/svg"
 width="225.000000pt" height="225.000000pt" viewBox="0 0 225.000000 225.000000"
 preserveAspectRatio="xMidYMid meet">
<metadata>
Created by potrace 1.11, written by Peter Selinger 2001-2013
</metadata>
<g transform="translate(0.000000,225.000000) scale(0.100000,-0.100000)"
fill="#000000" stroke="none">
<path d="M125 2235 c-50 -18 -100 -71 -114 -122 -15 -54 -15 -1923 0 -1978 14
-51 73 -110 124 -124 56 -15 1924 -15 1980 0 51 14 110 73 124 124 15 56 15
1924 0 1980 -14 51 -73 110 -124 124 -28 8 -328 11 -995 11 -797 -1 -962 -3
-995 -15z m856 -695 c35 -11 88 -35 116 -55 l53 -36 -37 -49 c-21 -28 -43 -50
-50 -50 -8 0 -30 10 -51 23 -56 36 -98 47 -172 47 -167 0 -270 -123 -270 -321
0 -133 56 -240 154 -292 58 -31 202 -31 262 0 22 12 46 29 53 37 8 9 21 16 31
16 18 0 80 -63 80 -81 0 -17 -63 -69 -117 -95 -145 -72 -357 -48 -477 53 -52
44 -103 119 -127 190 -32 92 -32 259 -1 345 49 136 168 246 299 277 69 16 187
12 254 -9z m682 0 c60 -23 119 -77 142 -132 8 -21 15 -67 15 -106 0 -101 -37
-169 -164 -302 -55 -58 -124 -130 -153 -160 l-52 -55 181 4 c210 4 208 4 208
-86 l0 -53 -304 0 c-290 0 -304 1 -309 19 -13 50 7 76 200 273 223 226 248
265 241 369 -5 69 -31 104 -90 119 -75 21 -146 -14 -181 -88 l-23 -47 -63 2
c-35 1 -65 3 -67 6 -10 10 30 110 59 149 76 99 230 137 360 88z"/>
</g>
</svg>
